<svg width="53" height="50" viewBox="0 0 53 50" fill="none" xmlns="http://www.w3.org/2000/svg">
<path d="M0.563538 12.4284C0.563538 5.82273 5.9185 0.467773 12.5242 0.467773H40.9307C47.5363 0.467773 52.8913 5.82273 52.8913 12.4284V37.3865C52.8913 43.9922 47.5364 49.3472 40.9307 49.3472H12.5242C5.9185 49.3472 0.563538 43.9922 0.563538 37.3865V12.4284Z" fill="#4DABFF"/>
<path d="M34.8795 18.2327C34.6438 17.5895 33.9841 17.1317 33.2066 17.1317H30.2614V16.0415C30.2614 15.4419 29.7313 14.9514 29.0834 14.9514H24.3711C23.7232 14.9514 23.193 15.4419 23.193 16.0415V17.1317H20.2479C19.4703 17.1317 18.8224 17.5895 18.575 18.2327L16.2542 24.414C16.1718 24.6429 16.1246 24.8827 16.1246 25.1335V32.939C16.1246 33.8439 16.9139 34.5743 17.8917 34.5743C18.8695 34.5743 19.6588 33.8439 19.6588 32.939V32.3939H33.7956V32.939C33.7956 33.833 34.5849 34.5743 35.5627 34.5743C36.5287 34.5743 37.3298 33.8439 37.3298 32.939V25.1335C37.3298 24.8936 37.2827 24.6429 37.2002 24.414L34.8795 18.2327ZM20.2479 29.1235C19.2701 29.1235 18.4808 28.3931 18.4808 27.4882C18.4808 26.5834 19.2701 25.853 20.2479 25.853C21.2257 25.853 22.015 26.5834 22.015 27.4882C22.015 28.3931 21.2257 29.1235 20.2479 29.1235ZM33.2066 29.1235C32.2288 29.1235 31.4395 28.3931 31.4395 27.4882C31.4395 26.5834 32.2288 25.853 33.2066 25.853C34.1844 25.853 34.9737 26.5834 34.9737 27.4882C34.9737 28.3931 34.1844 29.1235 33.2066 29.1235ZM18.4808 23.6727L20.2479 18.7669H33.2066L34.9737 23.6727H18.4808Z" fill="white"/>
</svg>
