<svg width="49" height="50" viewBox="0 0 49 50" fill="none" xmlns="http://www.w3.org/2000/svg">
<path d="M0.0797119 12.4284C0.0797119 5.82273 5.43467 0.467773 12.0403 0.467773H36.9985C43.6042 0.467773 48.9591 5.82273 48.9591 12.4284V37.3865C48.9591 43.9922 43.6042 49.3472 36.9985 49.3472H12.0403C5.43467 49.3472 0.0797119 43.9922 0.0797119 37.3865V12.4284Z" fill="#FDBF00"/>
<path d="M14.4582 30.8678C14.4582 31.9642 14.9487 32.9485 15.7158 33.6337V35.2285C15.7158 36.2626 16.5584 37.0973 17.6023 37.0973C18.6461 37.0973 19.4887 36.2626 19.4887 35.2285V34.6055H29.5498V35.2285C29.5498 36.2501 30.3924 37.0973 31.4363 37.0973C32.4675 37.0973 33.3227 36.2626 33.3227 35.2285V33.6337C34.0899 32.9485 34.5803 31.9642 34.5803 30.8678V18.4088C34.5803 14.0482 30.078 13.4252 24.5193 13.4252C18.9605 13.4252 14.4582 14.0482 14.4582 18.4088V30.8678ZM18.8599 32.1137C17.8161 32.1137 16.9735 31.279 16.9735 30.2449C16.9735 29.2108 17.8161 28.376 18.8599 28.376C19.9037 28.376 20.7464 29.2108 20.7464 30.2449C20.7464 31.279 19.9037 32.1137 18.8599 32.1137ZM30.1786 32.1137C29.1348 32.1137 28.2922 31.279 28.2922 30.2449C28.2922 29.2108 29.1348 28.376 30.1786 28.376C31.2225 28.376 32.0651 29.2108 32.0651 30.2449C32.0651 31.279 31.2225 32.1137 30.1786 32.1137ZM32.0651 24.6383H16.9735V18.4088H32.0651V24.6383Z" fill="white"/>
</svg>
