<svg width="50" height="50" viewBox="0 0 50 50" fill="none" xmlns="http://www.w3.org/2000/svg">
<path d="M0.771545 12.4284C0.771545 5.82273 6.1265 0.467773 12.7322 0.467773H37.6903C44.296 0.467773 49.6509 5.82273 49.6509 12.4284V37.3865C49.6509 43.9922 44.296 49.3472 37.6903 49.3472H12.7322C6.1265 49.3472 0.771545 43.9922 0.771545 37.3865V12.4284Z" fill="#79CA00"/>
<path d="M33.0181 16.2062H17.404C16.3276 16.2062 15.4522 17.0734 15.4522 18.1398V31.6747C15.4522 32.741 16.3276 33.6082 17.404 33.6082H33.0181C34.0945 33.6082 34.9698 32.741 34.9698 31.6747V18.1398C34.9698 17.0734 34.0945 16.2062 33.0181 16.2062ZM33.019 22.0069C33.0181 22.0069 33.0181 22.0069 33.019 22.0069H32.5652L29.9626 18.1398H33.0181L33.019 22.0069ZM28.6266 27.8076L23.2593 30.7079V24.9072L28.6266 27.8076ZM27.6858 22.0069L25.0832 18.1398H27.6166L30.2192 22.0069H27.6858ZM25.3398 22.0069H22.8064L20.2038 18.1398H22.7372L25.3398 22.0069ZM17.404 18.1398H17.8578L20.4604 22.0069H17.404V18.1398Z" fill="white"/>
</svg>
