<svg width="25" height="22" viewBox="0 0 25 22" fill="none" xmlns="http://www.w3.org/2000/svg">
<path d="M11.7371 7.51556H13.4491V6.66757C13.4491 6.44267 13.5393 6.22698 13.6999 6.06795C13.8604 5.90892 14.0781 5.81958 14.3052 5.81958H16.8732C17.1002 5.81958 17.318 5.90892 17.4785 6.06795C17.639 6.22698 17.7292 6.44267 17.7292 6.66757V7.51556H21.1533V4.12359C21.1533 3.22399 20.7926 2.36123 20.1504 1.72511C19.5083 1.089 18.6374 0.731628 17.7292 0.731628H7.45702C6.5489 0.731628 5.67797 1.089 5.03583 1.72511C4.39369 2.36123 4.03294 3.22399 4.03294 4.12359V7.51556H7.45702V6.66757C7.45702 6.44267 7.5472 6.22698 7.70774 6.06795C7.86827 5.90892 8.086 5.81958 8.31303 5.81958H10.8811C11.1081 5.81958 11.3259 5.90892 11.4864 6.06795C11.6469 6.22698 11.7371 6.44267 11.7371 6.66757V7.51556Z" fill="white"/>
<path d="M4.88909 9.21155C3.75398 9.21155 2.66537 9.65826 1.86273 10.4534C1.06009 11.2485 0.609177 12.327 0.609177 13.4515V20.2354C0.609177 20.4603 0.69936 20.676 0.859888 20.8351C1.02042 20.9941 1.23814 21.0834 1.46516 21.0834C1.69218 21.0834 1.9099 20.9941 2.07043 20.8351C2.23096 20.676 2.32114 20.4603 2.32114 20.2354V15.9955H22.8647V20.2354C22.8647 20.4603 22.9549 20.676 23.1154 20.8351C23.2759 20.9941 23.4937 21.0834 23.7207 21.0834C23.9477 21.0834 24.1654 20.9941 24.326 20.8351C24.4865 20.676 24.5767 20.4603 24.5767 20.2354V13.4515C24.5767 12.327 24.1257 11.2485 23.3231 10.4534C22.5205 9.65826 21.4319 9.21155 20.2968 9.21155H4.88909Z" fill="white"/>
</svg>
