<svg width="89" height="19" viewBox="0 0 89 19" fill="none" xmlns="http://www.w3.org/2000/svg">
<line x1="4.5387" y1="9.0279" x2="81.9478" y2="9.02791" stroke="#CCCCCC" stroke-width="0.74754" stroke-dasharray="2.24 2.24"/>
<path d="M43.8445 16.4424H42.8238C42.7212 16.4423 42.6203 16.4188 42.5303 16.3739C42.4402 16.3291 42.3639 16.2643 42.3084 16.1855C42.2528 16.1067 42.2197 16.0165 42.2122 15.923C42.2046 15.8295 42.2228 15.7358 42.2651 15.6505L44.7368 10.6659L41.0255 10.5905L39.6719 12.0892C39.4139 12.3857 39.208 12.5178 38.6826 12.5178H37.9955C37.8867 12.521 37.7787 12.5002 37.6806 12.4571C37.5824 12.4141 37.4971 12.35 37.4319 12.2704C37.3406 12.1579 37.2509 11.9673 37.3383 11.6954L38.0983 9.20748C38.104 9.18891 38.1109 9.17034 38.1186 9.15212C38.119 9.15038 38.119 9.14859 38.1186 9.14686C38.1107 9.12865 38.1039 9.11005 38.0983 9.09114L37.3375 6.58747C37.2551 6.32081 37.3452 6.13439 37.4357 6.02471C37.4965 5.95103 37.5753 5.8914 37.6659 5.85063C37.7564 5.80985 37.8562 5.78906 37.9572 5.78994H38.6826C39.0749 5.78994 39.4557 5.95078 39.6796 6.21043L41.0051 7.6839L44.7368 7.63344L42.2659 2.65763C42.2235 2.57229 42.2052 2.4786 42.2127 2.38514C42.2202 2.29168 42.2532 2.20142 42.3087 2.12261C42.3642 2.04381 42.4404 1.97897 42.5304 1.93403C42.6204 1.88909 42.7213 1.86548 42.8238 1.86536H43.8556C43.9996 1.868 44.141 1.90024 44.2695 1.95969C44.3979 2.01914 44.5101 2.10427 44.5976 2.20876L49.3925 7.53498L51.6077 7.48171C51.7698 7.47366 52.2192 7.47085 52.3232 7.47085C54.442 7.4719 55.7074 8.10054 55.7074 9.15387C55.7074 9.48535 55.5625 10.1 54.5927 10.491C54.0203 10.7223 53.2564 10.8393 52.3224 10.8393C52.2196 10.8393 51.7714 10.8365 51.6069 10.8285L49.3921 10.7745L44.5853 16.1007C44.4977 16.2048 44.3857 16.2895 44.2575 16.3486C44.1292 16.4077 43.9881 16.4398 43.8445 16.4424Z" fill="#1262AE"/>
<circle cx="4.73216" cy="9.40164" r="2.99016" fill="white" stroke="#1262AE" stroke-width="1.49508"/>
<circle cx="84.981" cy="9.08999" r="2.99016" fill="white" stroke="#1262AE" stroke-width="1.49508"/>
</svg>
