<svg width="50" height="50" viewBox="0 0 50 50" fill="none" xmlns="http://www.w3.org/2000/svg">
<rect x="0.595886" y="0.467773" width="48.8794" height="48.8794" rx="11.9606" fill="#36DA76"/>
<path d="M31.3656 34.4346C31.3246 33.5574 31.2702 32.6849 31.2267 31.8143C31.0861 29.0909 31.0976 26.3275 30.9504 23.5906C30.8032 20.8742 30.8905 18.156 30.8129 15.4398C30.7972 14.8752 30.8225 13.7603 30.2383 13.4385C28.9817 12.7471 28.2357 14.6329 27.9161 15.4006C27.3398 16.7941 27.0068 18.2598 26.5952 19.7035C26.2444 20.9392 25.8448 22.171 25.7094 23.4504C25.6091 24.4105 25.6183 25.4853 26.1199 26.3503C26.3717 26.7851 26.8072 27.0809 27.3031 27.206C27.8177 27.3377 28.4061 27.1653 28.8944 27.3977C29.0203 27.4585 29.1312 27.5849 29.1817 27.7126C29.34 28.1239 29.1903 28.748 29.1408 29.1723C28.984 30.5393 28.8183 31.92 28.7441 33.2936C28.7002 34.1243 28.6517 35.1881 29.1542 35.9119C29.4622 36.3514 30.0865 36.7618 30.6497 36.5434C31.4915 36.2211 31.4006 35.1327 31.3656 34.4346Z" fill="white"/>
<path d="M20.6559 14.0449C20.414 14.1419 20.5057 15.0068 20.4949 15.2726C20.479 15.75 20.5116 16.3818 20.4542 17.0006C20.4538 17.0061 20.453 17.01 20.4522 17.0138C20.4472 17.0568 20.4432 17.1032 20.4361 17.1522C20.4285 17.1995 20.4205 17.2451 20.4147 17.2919C20.3632 17.5936 20.265 17.9509 20.0794 18.1222C19.8687 18.3181 19.3966 18.2769 19.2327 18.0454C18.9644 17.6686 18.9845 16.8273 18.9682 16.8025C18.9573 16.4045 18.8993 15.2007 18.8124 14.4071C18.8052 14.3473 18.7936 13.9876 18.4651 13.9491C18.312 13.9325 18.1508 14.063 18.0986 14.3014C17.9443 15.005 17.7999 16.3464 17.7908 16.5573C17.7889 16.5777 17.788 16.6015 17.7879 16.6215C17.7879 16.6215 17.7871 16.6253 17.7876 16.627C17.7866 16.6708 17.7344 17.7217 17.4685 18.0842C17.3295 18.2743 16.9687 18.4238 16.6101 18.2226C16.4672 18.1417 16.3694 17.9856 16.3004 17.8185C15.9254 16.6513 16.262 15.3655 16.3099 14.7528C16.3241 14.5805 16.4801 14.0051 16.132 14.0244C15.6078 14.0528 14.9308 16.2863 14.8098 16.7981C14.5131 18.0718 14.4681 19.4328 14.9842 20.6614C15.271 21.3417 15.8318 21.8987 16.5273 22.1687C16.8347 22.2869 17.1763 22.3727 17.538 22.4225C17.4079 25.3181 17.2601 28.3396 17.1255 30.0212C17.0221 31.2866 16.8999 32.566 16.9163 33.8367C16.926 34.5959 16.918 35.5011 17.4164 36.1377C17.9377 36.8028 19.0373 36.4968 19.3341 35.711C19.6672 34.8251 19.5703 33.7928 19.4569 32.1663C19.343 30.538 19.2149 28.3168 19.1442 27.1218C19.0409 25.3621 19.0048 23.8244 18.9949 22.4214C19.9208 22.2891 20.7844 21.8918 21.2677 21.1612C21.4798 20.8416 21.6194 20.4845 21.7147 20.117C21.861 19.5606 21.9323 18.9509 21.9007 18.3769C21.8686 17.8484 21.4342 13.7331 20.6559 14.0449Z" fill="white"/>
</svg>
