<svg width="19" height="19" viewBox="0 0 19 19" fill="none" xmlns="http://www.w3.org/2000/svg">
<path d="M17.0266 14.679C16.5461 14.2506 16.1253 13.7594 15.7758 13.2188C15.3941 12.4725 15.1654 11.6575 15.103 10.8217V8.35978C15.1063 7.0469 14.63 5.77801 13.7638 4.79151C12.8975 3.805 11.7008 3.16879 10.3985 3.00241V2.35952C10.3985 2.18307 10.3284 2.01385 10.2036 1.88908C10.0788 1.76431 9.9096 1.69421 9.73315 1.69421C9.5567 1.69421 9.38748 1.76431 9.26271 1.88908C9.13794 2.01385 9.06784 2.18307 9.06784 2.35952V3.01238C7.77722 3.19075 6.59497 3.83081 5.74006 4.814C4.88515 5.79719 4.41552 7.05689 4.41815 8.35978V10.8217C4.35573 11.6575 4.12699 12.4725 3.74536 13.2188C3.40193 13.7582 2.98795 14.2493 2.51441 14.679C2.46125 14.7257 2.41865 14.7832 2.38943 14.8476C2.36022 14.9121 2.34506 14.982 2.34497 15.0527V15.7305C2.34497 15.8627 2.39748 15.9894 2.49094 16.0829C2.5844 16.1764 2.71116 16.2289 2.84333 16.2289H16.6977C16.8299 16.2289 16.9567 16.1764 17.0501 16.0829C17.1436 15.9894 17.1961 15.8627 17.1961 15.7305V15.0527C17.196 14.982 17.1808 14.9121 17.1516 14.8476C17.1224 14.7832 17.0798 14.7257 17.0266 14.679ZM3.38156 15.2322C3.84524 14.7842 4.25349 14.2823 4.59756 13.7371C5.07828 12.8358 5.35877 11.8413 5.41985 10.8217V8.35978C5.40009 7.77572 5.49805 7.19365 5.70792 6.64824C5.91779 6.10283 6.23527 5.60523 6.64145 5.18507C7.04763 4.76492 7.53421 4.43079 8.07221 4.20259C8.61021 3.9744 9.18863 3.8568 9.77302 3.8568C10.3574 3.8568 10.9358 3.9744 11.4738 4.20259C12.0118 4.43079 12.4984 4.76492 12.9046 5.18507C13.3108 5.60523 13.6283 6.10283 13.8381 6.64824C14.048 7.19365 14.146 7.77572 14.1262 8.35978V10.8217C14.1873 11.8413 14.4678 12.8358 14.9485 13.7371C15.2926 14.2823 15.7008 14.7842 16.1645 15.2322H3.38156Z" fill="#424242"/>
<path d="M9.79557 17.8638C10.1095 17.8566 10.4108 17.7385 10.6461 17.5306C10.8814 17.3227 11.0355 17.0382 11.0813 16.7275H8.45996C8.50704 17.0466 8.66844 17.3378 8.91412 17.5468C9.1598 17.7558 9.47304 17.8685 9.79557 17.8638Z" fill="#424242"/>
<circle cx="14.6221" cy="4.87421" r="2.61639" fill="#F99A0E" stroke="white" stroke-width="0.74754"/>
</svg>
