<svg width="13" height="14" viewBox="0 0 13 14" fill="none" xmlns="http://www.w3.org/2000/svg">
<path d="M12.5285 5.49642L8.79871 4.91018L7.13138 1.25454C7.08584 1.15445 7.01092 1.07342 6.91837 1.02417C6.68627 0.900254 6.40422 1.00352 6.28817 1.25454L4.62083 4.91018L0.891001 5.49642C0.78817 5.51231 0.694153 5.56474 0.622171 5.64417C0.535149 5.74091 0.487196 5.87104 0.488849 6.00599C0.490502 6.14094 0.541625 6.26966 0.630985 6.36386L3.32957 9.20926L2.69201 13.2271C2.67706 13.3206 2.68663 13.4167 2.71962 13.5046C2.75261 13.5925 2.80772 13.6686 2.87868 13.7244C2.94964 13.7801 3.03363 13.8132 3.12111 13.82C3.2086 13.8267 3.29608 13.8068 3.37364 13.7625L6.70977 11.8656L10.0459 13.7625C10.137 13.815 10.2428 13.8324 10.3441 13.8134C10.5997 13.7657 10.7716 13.5036 10.7275 13.2271L10.09 9.20926L12.7886 6.36386C12.862 6.28602 12.9105 6.18434 12.9252 6.07313C12.9648 5.7951 12.7856 5.53773 12.5285 5.49642Z" fill="#FDBF00"/>
</svg>
