<svg width="13" height="14" viewBox="0 0 13 14" fill="none" xmlns="http://www.w3.org/2000/svg">
<path d="M12.1665 5.49642L8.43666 4.91018L6.76933 1.25454C6.72379 1.15445 6.64887 1.07342 6.55632 1.02417C6.32422 0.900254 6.04216 1.00352 5.92611 1.25454L4.25878 4.91018L0.528963 5.49642C0.426132 5.51231 0.332115 5.56474 0.260133 5.64417C0.173112 5.74091 0.125159 5.87104 0.126811 6.00599C0.128464 6.14094 0.179587 6.26966 0.268947 6.36386L2.96752 9.20926L2.32997 13.2271C2.31502 13.3206 2.32458 13.4167 2.35758 13.5046C2.39057 13.5925 2.44567 13.6686 2.51664 13.7244C2.5876 13.7801 2.67159 13.8132 2.75907 13.82C2.84655 13.8267 2.93403 13.8068 3.01159 13.7625L6.34772 11.8656L9.68385 13.7625C9.77493 13.815 9.88069 13.8324 9.98206 13.8134C10.2377 13.7657 10.4095 13.5036 10.3655 13.2271L9.72792 9.20926L12.4265 6.36386C12.4999 6.28602 12.5484 6.18434 12.5631 6.07313C12.6028 5.7951 12.4236 5.53773 12.1665 5.49642Z" fill="#FDBF00"/>
</svg>
