<svg width="14" height="14" viewBox="0 0 14 14" fill="none" xmlns="http://www.w3.org/2000/svg">
<path d="M12.7412 5.49642L9.01141 4.91018L7.34407 1.25454C7.29853 1.15445 7.22361 1.07342 7.13106 1.02417C6.89896 0.900254 6.61691 1.00352 6.50086 1.25454L4.83352 4.91018L1.10369 5.49642C1.00086 5.51231 0.906838 5.56474 0.834856 5.64417C0.747834 5.74091 0.699881 5.87104 0.701534 6.00599C0.703186 6.14094 0.75431 6.26966 0.84367 6.36386L3.54226 9.20926L2.9047 13.2271C2.88975 13.3206 2.89931 13.4167 2.93231 13.5046C2.9653 13.5925 3.0204 13.6686 3.09137 13.7244C3.16233 13.7801 3.24632 13.8132 3.3338 13.82C3.42128 13.8267 3.50877 13.8068 3.58633 13.7625L6.92246 11.8656L10.2586 13.7625C10.3497 13.815 10.4555 13.8324 10.5568 13.8134C10.8124 13.7657 10.9843 13.5036 10.9402 13.2271L10.3027 9.20926L13.0013 6.36386C13.0747 6.28602 13.1232 6.18434 13.1379 6.07313C13.1775 5.7951 12.9983 5.53773 12.7412 5.49642Z" fill="#FDBF00"/>
</svg>
