<svg width="14" height="14" viewBox="0 0 14 14" fill="none" xmlns="http://www.w3.org/2000/svg">
<path d="M12.9767 5.49645L9.23973 4.91022L7.5692 1.25457C7.52357 1.15448 7.4485 1.07346 7.35578 1.0242C7.12323 0.900285 6.84063 1.00355 6.72436 1.25457L5.05382 4.91022L1.31682 5.49645C1.21379 5.51234 1.11959 5.56477 1.04747 5.6442C0.96028 5.74094 0.912234 5.87107 0.91389 6.00602C0.915546 6.14097 0.966768 6.26969 1.0563 6.36389L3.76007 9.20929L3.12129 13.2272C3.10631 13.3206 3.11589 13.4168 3.14895 13.5046C3.18201 13.5925 3.23722 13.6687 3.30832 13.7244C3.37942 13.7801 3.46356 13.8133 3.55122 13.82C3.63887 13.8268 3.72652 13.8069 3.80423 13.7626L7.14678 11.8656L10.4893 13.7626C10.5806 13.815 10.6866 13.8325 10.7881 13.8134C11.0442 13.7657 11.2164 13.5036 11.1723 13.2272L10.5335 9.20929L13.2373 6.36389C13.3108 6.28605 13.3594 6.18437 13.3741 6.07316C13.4139 5.79513 13.2343 5.53776 12.9767 5.49645Z" fill="#FDBF00"/>
</svg>
