<svg width="25" height="24" viewBox="0 0 25 24" fill="none" xmlns="http://www.w3.org/2000/svg">
<path d="M17.0045 0.955422C16.512 0.467778 15.8442 0.193848 15.1478 0.193848C14.4515 0.193848 13.7836 0.467778 13.2911 0.955422L1.75841 12.3816C1.5145 12.6232 1.32102 12.9101 1.18902 13.2258C1.05702 13.5415 0.989075 13.8799 0.989075 14.2216C0.989075 14.5633 1.05702 14.9017 1.18902 15.2174C1.32102 15.5331 1.5145 15.8199 1.75841 16.0616L3.12659 17.4158C3.72196 18.0068 4.55898 17.9015 5.06446 17.6032C5.3433 17.4391 5.66934 17.3718 5.9911 17.4118C6.31286 17.4518 6.61202 17.5968 6.84132 17.824C7.07063 18.0511 7.21702 18.3475 7.25738 18.6663C7.29774 18.985 7.22977 19.308 7.0642 19.5842C6.76418 20.085 6.65678 20.9142 7.25332 21.504L8.62267 22.8594C8.86658 23.1011 9.15614 23.2927 9.47482 23.4235C9.79349 23.5543 10.1351 23.6216 10.48 23.6216C10.8249 23.6216 11.1665 23.5543 11.4852 23.4235C11.8038 23.2927 12.0934 23.1011 12.3373 22.8594L23.8688 11.4356C24.1127 11.194 24.3062 10.9071 24.4382 10.5914C24.5702 10.2757 24.6381 9.93731 24.6381 9.5956C24.6381 9.25388 24.5702 8.91551 24.4382 8.5998C24.3062 8.2841 24.1127 7.99724 23.8688 7.75561L22.5018 6.4002C21.9064 5.81039 21.0682 5.91447 20.5628 6.21285C20.2839 6.37687 19.9579 6.4442 19.6361 6.40422C19.3143 6.36423 19.0152 6.21921 18.7859 5.99205C18.5566 5.76488 18.4102 5.46852 18.3698 5.14976C18.3295 4.831 18.3974 4.508 18.563 4.23177C18.8642 3.73101 18.9704 2.9018 18.3739 2.31199L17.0057 0.955422H17.0045Z" fill="white"/>
</svg>
