<svg width="20" height="20" viewBox="0 0 20 20" fill="none" xmlns="http://www.w3.org/2000/svg">
<path d="M9.9802 17.8543C7.93744 17.8543 5.97835 17.0428 4.5339 15.5984C3.08945 14.154 2.27797 12.1949 2.27797 10.1521C2.27797 8.10935 3.08945 6.15026 4.5339 4.70581C5.97835 3.26136 7.93744 2.44988 9.9802 2.44988C12.023 2.44988 13.982 3.26136 15.4265 4.70581C16.8709 6.15026 17.6824 8.10935 17.6824 10.1521C17.6824 12.1949 16.8709 14.154 15.4265 15.5984C13.982 17.0428 12.023 17.8543 9.9802 17.8543ZM9.9802 18.9547C12.3148 18.9547 14.5537 18.0272 16.2045 16.3764C17.8553 14.7256 18.7827 12.4867 18.7827 10.1521C18.7827 7.81752 17.8553 5.57856 16.2045 3.92777C14.5537 2.27697 12.3148 1.34956 9.9802 1.34956C7.64562 1.34956 5.40665 2.27697 3.75586 3.92777C2.10506 5.57856 1.17765 7.81752 1.17765 10.1521C1.17765 12.4867 2.10506 14.7256 3.75586 16.3764C5.40665 18.0272 7.64562 18.9547 9.9802 18.9547Z" fill="#1262AF"/>
<path d="M8.01522 6.4143C8.11902 6.36085 8.23555 6.33707 8.352 6.34558C8.46844 6.35409 8.58027 6.39456 8.6752 6.46253L13.1174 9.6355C13.1996 9.6942 13.2667 9.7717 13.3129 9.86155C13.3592 9.9514 13.3833 10.051 13.3833 10.1521C13.3833 10.2531 13.3592 10.3527 13.3129 10.4426C13.2667 10.5324 13.1996 10.6099 13.1174 10.6686L8.6752 13.8416C8.58031 13.9095 8.46852 13.9499 8.35214 13.9585C8.23576 13.967 8.11929 13.9432 8.01552 13.8898C7.91176 13.8364 7.82473 13.7555 7.76399 13.6558C7.70326 13.5562 7.67118 13.4417 7.67127 13.325V6.97909C7.67115 6.86243 7.70319 6.74799 7.76387 6.64836C7.82455 6.54872 7.91152 6.46773 8.01522 6.4143Z" fill="#1262AF"/>
</svg>
