<svg width="19" height="20" viewBox="0 0 19 20" fill="none" xmlns="http://www.w3.org/2000/svg">
<g clip-path="url(#clip0_1038_1444)">
<path d="M9.61822 17.8543C7.57546 17.8543 5.61637 17.0428 4.17192 15.5984C2.72747 14.154 1.91599 12.1949 1.91599 10.1521C1.91599 8.10935 2.72747 6.15026 4.17192 4.70581C5.61637 3.26136 7.57546 2.44988 9.61822 2.44988C11.661 2.44988 13.6201 3.26136 15.0645 4.70581C16.509 6.15026 17.3204 8.10935 17.3204 10.1521C17.3204 12.1949 16.509 14.154 15.0645 15.5984C13.6201 17.0428 11.661 17.8543 9.61822 17.8543ZM9.61822 18.9547C11.9528 18.9547 14.1918 18.0272 15.8426 16.3764C17.4934 14.7256 18.4208 12.4867 18.4208 10.1521C18.4208 7.81752 17.4934 5.57856 15.8426 3.92777C14.1918 2.27697 11.9528 1.34956 9.61822 1.34956C7.28364 1.34956 5.04468 2.27697 3.39388 3.92777C1.74308 5.57856 0.815674 7.81752 0.815674 10.1521C0.815674 12.4867 1.74308 14.7256 3.39388 16.3764C5.04468 18.0272 7.28364 18.9547 9.61822 18.9547Z" fill="#1262AF"/>
<path d="M7.65322 6.4143C7.75701 6.36085 7.87355 6.33707 7.98999 6.34558C8.10643 6.35409 8.21827 6.39456 8.31319 6.46253L12.7554 9.6355C12.8376 9.6942 12.9047 9.7717 12.9509 9.86155C12.9972 9.9514 13.0213 10.051 13.0213 10.1521C13.0213 10.2531 12.9972 10.3527 12.9509 10.4426C12.9047 10.5324 12.8376 10.6099 12.7554 10.6686L8.31319 13.8416C8.2183 13.9095 8.10652 13.9499 7.99014 13.9585C7.87375 13.967 7.75728 13.9432 7.65352 13.8898C7.54975 13.8364 7.46272 13.7555 7.40199 13.6558C7.34125 13.5562 7.30917 13.4417 7.30927 13.325V6.97909C7.30914 6.86243 7.34118 6.74799 7.40186 6.64836C7.46254 6.54872 7.54951 6.46773 7.65322 6.4143Z" fill="#1262AF"/>
</g>
<defs>
<clipPath id="clip0_1038_1444">
<rect width="18.6885" height="18.6885" fill="white" transform="translate(0.273926 0.807861)"/>
</clipPath>
</defs>
</svg>
